<svg xmlns="http://www.w3.org/2000/svg" viewBox="0 0 512 512">
  <defs>
    <linearGradient id="bg" x1="0%" y1="0%" x2="100%" y2="100%">
      <stop offset="0%" style="stop-color:#1a1a2e"/>
      <stop offset="100%" style="stop-color:#16213e"/>
    </linearGradient>
    <linearGradient id="accent" x1="0%" y1="0%" x2="100%" y2="100%">
      <stop offset="0%" style="stop-color:#10A37F"/>
      <stop offset="100%" style="stop-color:#0D8A6A"/>
    </linearGradient>
  </defs>
  <rect width="512" height="512" rx="112" fill="url(#bg)"/>
  <!-- Chat bubble -->
  <path d="M 140 160 Q 140 130 170 130 L 342 130 Q 372 130 372 160 L 372 280 Q 372 310 342 310 L 220 310 L 170 350 L 170 310 Q 140 310 140 280 Z" fill="url(#accent)" opacity="0.9"/>
  <!-- Dots -->
  <circle cx="210" cy="220" r="16" fill="white" opacity="0.9"/>
  <circle cx="256" cy="220" r="16" fill="white" opacity="0.9"/>
  <circle cx="302" cy="220" r="16" fill="white" opacity="0.9"/>
  <!-- Signal waves -->
  <path d="M 330 370 Q 350 355 370 370" stroke="#10A37F" stroke-width="8" fill="none" stroke-linecap="round" opacity="0.5"/>
  <path d="M 320 390 Q 350 365 380 390" stroke="#10A37F" stroke-width="8" fill="none" stroke-linecap="round" opacity="0.35"/>
</svg>
